<?xml version="1.0" encoding="UTF-8"?>
<svg width="459px" height="134px" viewBox="0 0 459 134" version="1.1" xmlns="http://www.w3.org/2000/svg" xmlns:xlink="http://www.w3.org/1999/xlink">
    <!-- Generator: Sketch 40.3 (33839) - http://www.bohemiancoding.com/sketch -->
    <title>rect</title>
    <desc>Created with Sketch.</desc>
    <defs></defs>
    <g id="Page-1" stroke="none" stroke-width="1" fill="none" fill-rule="evenodd">
        <g id="color" transform="translate(-680.000000, -291.000000)" fill="#212121">
            <g id="rect" transform="translate(680.000000, 291.000000)">
                <g id="Group" transform="translate(158.000000, 9.000000)">
                    <path d="M41.7304688,34.9492188 C41.3320293,40.4570588 39.2988465,44.7929529 35.6308594,47.9570312 C31.9628723,51.1211096 27.1289362,52.703125 21.1289062,52.703125 C14.5663734,52.703125 9.40431568,50.4941627 5.64257812,46.0761719 C1.88084057,41.658181 0,35.5937886 0,27.8828125 L0,24.7539062 C0,19.8320066 0.867178828,15.4961125 2.6015625,11.7460938 C4.33594617,7.996075 6.81443701,5.11915064 10.0371094,3.11523438 C13.2597817,1.11131811 17.0038849,0.109375 21.2695312,0.109375 C27.1758108,0.109375 31.9335757,1.69139043 35.5429688,4.85546875 C39.1523618,8.01954707 41.2382784,12.4609089 41.8007812,18.1796875 L31.2539062,18.1796875 C30.9960925,14.8749835 30.0761798,12.4785231 28.4941406,10.9902344 C26.9121015,9.50194568 24.5039224,8.7578125 21.2695312,8.7578125 C17.7538887,8.7578125 15.1230556,10.0175655 13.3769531,12.5371094 C11.6308506,15.0566532 10.7343752,18.9648173 10.6875,24.2617188 L10.6875,28.1289062 C10.6875,33.6601839 11.5253822,37.7031122 13.2011719,40.2578125 C14.8769615,42.8125128 17.5195132,44.0898438 21.1289062,44.0898438 C24.386735,44.0898438 26.8183513,43.3457106 28.4238281,41.8574219 C30.0293049,40.3691332 30.9492176,38.0664218 31.1835938,34.9492188 L41.7304688,34.9492188 Z M70.9546876,41.453125 L52.4625001,41.453125 L48.9468751,52 L37.7320313,52 L56.7867188,0.8125 L66.5601563,0.8125 L85.7203126,52 L74.5054688,52 L70.9546876,41.453125 Z M55.3101563,32.9101562 L68.1070313,32.9101562 L61.6734376,13.75 L55.3101563,32.9101562 Z M94.4484377,33.9648438 L94.4484377,52 L83.9015627,52 L83.9015627,0.8125 L103.870313,0.8125 C107.714082,0.8125 111.094907,1.51561797 114.012891,2.921875 C116.930874,4.32813203 119.174992,6.32615893 120.745313,8.91601562 C122.315633,11.5058723 123.100781,14.4531085 123.100781,17.7578125 C123.100781,22.7734626 121.384002,26.7285012 117.950391,29.6230469 C114.51678,32.5175926 109.764874,33.9648438 103.694531,33.9648438 L94.4484377,33.9648438 Z M94.4484377,25.421875 L103.870313,25.421875 C106.659389,25.421875 108.786321,24.7656316 110.251172,23.453125 C111.716023,22.1406184 112.448438,20.2656372 112.448438,17.828125 C112.448438,15.3203 111.710164,13.2929765 110.233594,11.7460938 C108.757024,10.199211 106.717982,9.40234398 104.116406,9.35546875 L94.4484377,9.35546875 L94.4484377,25.421875 Z M134.957813,52 L124.410938,52 L124.410938,0.8125 L134.957813,0.8125 L134.957813,52 Z M157.045313,39.3085938 L168.646875,0.8125 L180.389063,0.8125 L162.564844,52 L151.560938,52 L133.807032,0.8125 L145.514063,0.8125 L157.045313,39.3085938 Z M204.867188,41.453125 L186.375,41.453125 L182.859375,52 L171.644532,52 L190.699219,0.8125 L200.472657,0.8125 L219.632813,52 L208.417969,52 L204.867188,41.453125 Z M189.222657,32.9101562 L202.019532,32.9101562 L195.585938,13.75 L189.222657,32.9101562 Z M236.763282,33.2617188 L228.360938,33.2617188 L228.360938,52 L217.814063,52 L217.814063,0.8125 L236.833594,0.8125 C242.8805,0.8125 247.544515,2.16014277 250.825782,4.85546875 C254.107048,7.55079473 255.747657,11.3593504 255.747657,16.28125 C255.747657,19.773455 254.991805,22.6855352 253.480079,25.0175781 C251.968352,27.349621 249.67736,29.2070243 246.607032,30.5898438 L257.681251,51.5078125 L257.681251,52 L246.360938,52 L236.763282,33.2617188 Z M228.360938,24.71875 L236.868751,24.71875 C239.517201,24.71875 241.567962,24.0449286 243.021094,22.6972656 C244.474227,21.3496026 245.200782,19.4921993 245.200782,17.125 C245.200782,14.7109254 244.515242,12.8125069 243.144141,11.4296875 C241.773041,10.0468681 239.669546,9.35546875 236.833594,9.35546875 L228.360938,9.35546875 L228.360938,24.71875 Z M286.061719,41.453125 L267.569532,41.453125 L264.053907,52 L252.839063,52 L271.893751,0.8125 L281.667188,0.8125 L300.827344,52 L289.612501,52 L286.061719,41.453125 Z M270.417188,32.9101562 L283.214063,32.9101562 L276.780469,13.75 L270.417188,32.9101562 Z" id="CAPIVARA"></path>
                    <path d="M38.109375,99.0390625 C37.5234346,104.429714 35.5957195,108.554673 32.3261719,111.414062 C29.0566243,114.273452 24.7031522,115.703125 19.265625,115.703125 C15.468731,115.703125 12.1113427,114.753916 9.19335938,112.855469 C6.27537604,110.957022 4.01953922,108.267596 2.42578125,104.787109 C0.832023281,101.306623 0.0234376172,97.3281474 0,92.8515625 L0,86.2070312 C0,81.6601335 0.796867031,77.6289238 2.390625,74.1132812 C3.98438297,70.5976387 6.27537568,67.8847752 9.26367188,65.9746094 C12.2519681,64.0644436 15.6913868,63.109375 19.5820312,63.109375 C25.0664337,63.109375 29.3964685,64.5917821 32.5722656,67.5566406 C35.7480628,70.5214992 37.5937474,74.6171614 38.109375,79.84375 L33.75,79.84375 C32.6718696,71.148394 27.9492606,66.8007812 19.5820312,66.8007812 C14.941383,66.8007812 11.2441544,68.5351389 8.49023438,72.0039062 C5.73631436,75.4726736 4.359375,80.2655944 4.359375,86.3828125 L4.359375,92.640625 C4.359375,98.5469045 5.70115846,103.257795 8.38476562,106.773438 C11.0683728,110.28908 14.6952896,112.046875 19.265625,112.046875 C23.7890851,112.046875 27.1992073,110.962901 29.4960938,108.794922 C31.7929802,106.626942 33.2109348,103.375022 33.75,99.0390625 L38.109375,99.0390625 Z M79.8492188,92.1835938 C79.8492188,96.8945548 79.0347739,101.031232 77.4058595,104.59375 C75.7769451,108.156268 73.4507965,110.898428 70.4273438,112.820312 C67.4038912,114.742197 63.9117387,115.703125 59.9507813,115.703125 C53.974189,115.703125 49.1461122,113.564475 45.4664063,109.287109 C41.7867004,105.009744 39.9468751,99.2383176 39.9468751,91.9726562 L39.9468751,86.6992188 C39.9468751,82.0351329 40.7730387,77.9043149 42.4253907,74.3066406 C44.0777427,70.7089664 46.41561,67.943369 49.4390626,66.0097656 C52.4625152,64.0761622 55.9429492,63.109375 59.8804688,63.109375 C63.8179885,63.109375 67.2925632,64.0585843 70.304297,65.9570312 C73.3160308,67.8554782 75.6421794,70.5390452 77.2828126,74.0078125 C78.9234458,77.4765798 79.778906,81.4960709 79.8492188,86.0664062 L79.8492188,92.1835938 Z M75.5250001,86.6289062 C75.5250001,80.4648129 74.1304828,75.6367362 71.3414063,72.1445312 C68.5523299,68.6523263 64.7320556,66.90625 59.8804688,66.90625 C55.1226326,66.90625 51.3316548,68.6581856 48.507422,72.1621094 C45.6831891,75.6660331 44.2710938,80.5585623 44.2710938,86.8398438 L44.2710938,92.1835938 C44.2710938,98.2539366 45.6773298,103.064435 48.4898438,106.615234 C51.3023579,110.166033 55.1226322,111.941406 59.9507813,111.941406 C64.8492433,111.941406 68.6695176,110.189471 71.4117188,106.685547 C74.1539201,103.181623 75.5250001,98.3008125 75.5250001,92.0429688 L75.5250001,86.6289062 Z M84.1476564,115 L84.1476564,63.8125 L98.4562502,63.8125 C102.651584,63.8125 106.413265,64.7675686 109.741406,66.6777344 C113.069548,68.5879002 115.665225,71.3242009 117.528516,74.8867188 C119.391806,78.4492366 120.323438,82.5038835 120.323438,87.0507812 L120.323438,91.7617188 C120.323438,96.3320541 119.397666,100.386701 117.546094,103.925781 C115.694522,107.464861 113.087126,110.195303 109.723828,112.117188 C106.36053,114.039072 102.499241,115 98.1398439,115 L84.1476564,115 Z M88.4718752,67.5039062 L88.4718752,111.34375 L98.1750002,111.34375 C103.565652,111.34375 107.889828,109.556658 111.147656,105.982422 C114.405485,102.408185 116.034375,97.5742492 116.034375,91.4804688 L116.034375,86.9804688 C116.034375,81.0976268 114.428922,76.3867364 111.217969,72.8476562 C108.007015,69.3085761 103.776589,67.5273439 98.5265627,67.5039062 L88.4718752,67.5039062 Z M152.957813,90.4609375 L129.016407,90.4609375 L129.016407,111.34375 L156.54375,111.34375 L156.54375,115 L124.692188,115 L124.692188,63.8125 L156.367969,63.8125 L156.367969,67.5039062 L129.016407,67.5039062 L129.016407,86.8046875 L152.957813,86.8046875 L152.957813,90.4609375 Z M188.017969,102.414062 C188.017969,99.5781108 187.021885,97.3339926 185.029688,95.6816406 C183.03749,94.0292886 179.392996,92.4589918 174.096094,90.9707031 C168.799193,89.4824144 164.932044,87.8593838 162.494532,86.1015625 C159.025764,83.6171751 157.291407,80.3593952 157.291407,76.328125 C157.291407,72.4140429 158.902719,69.2324341 162.125391,66.7832031 C165.348063,64.3339721 169.467163,63.109375 174.482813,63.109375 C177.881267,63.109375 180.922253,63.7656184 183.60586,65.078125 C186.289467,66.3906316 188.369524,68.2187383 189.846094,70.5625 C191.322664,72.9062617 192.060938,75.5195168 192.060938,78.4023438 L187.701563,78.4023438 C187.701563,74.9101388 186.506262,72.1035262 184.115625,69.9824219 C181.724988,67.8613175 178.514083,66.8007812 174.482813,66.8007812 C170.568731,66.8007812 167.451574,67.6738194 165.13125,69.4199219 C162.810926,71.1660244 161.650782,73.4452984 161.650782,76.2578125 C161.650782,78.859388 162.69374,80.9804605 164.779688,82.6210938 C166.865636,84.261727 170.205446,85.7089781 174.799219,86.9628906 C179.392992,88.2168031 182.873426,89.5175714 185.240625,90.8652344 C187.607825,92.2128974 189.389057,93.8242094 190.584375,95.6992188 C191.779694,97.5742281 192.377344,99.7890497 192.377344,102.34375 C192.377344,106.37502 190.766032,109.609363 187.54336,112.046875 C184.320687,114.484387 180.072683,115.703125 174.799219,115.703125 C171.189826,115.703125 167.879312,115.0586 164.867579,113.769531 C161.855845,112.480462 159.570711,110.675793 158.01211,108.355469 C156.453508,106.035145 155.674219,103.375015 155.674219,100.375 L159.998438,100.375 C159.998438,103.984393 161.346081,106.832021 164.041407,108.917969 C166.736733,111.003917 170.322634,112.046875 174.799219,112.046875 C178.783614,112.046875 181.982801,111.167978 184.396875,109.410156 C186.81095,107.652335 188.017969,105.320327 188.017969,102.414062 L188.017969,102.414062 Z" id="CODES"></path>
                </g>
                <path d="M141.792777,70.8278563 C140.991343,71.6302958 141.036929,72.5185433 140.739617,73.2646712 C140.639396,73.5157268 140.686658,73.8529257 141.015142,73.9477838 C141.318151,74.0352678 141.545073,73.8257754 141.660713,73.5636586 C142.017018,72.755521 142.235895,71.9309592 141.792777,70.8278563 L141.792777,70.8278563 Z M132.835555,72.6673666 C132.704832,74.7592733 133.639,76.0688518 135.096732,76.1385708 C135.588117,76.1623692 135.991013,76.0376793 136.159277,75.5459589 C136.261509,75.2466363 136.100284,74.9134597 135.799956,74.9228449 C134.318426,74.9687656 133.85218,73.6481259 132.835555,72.6673666 L132.835555,72.6673666 Z M130.68432,85.5469554 C128.104045,86.877986 125.648795,87.8396396 123.026286,88.3531472 C122.169211,88.5210762 121.379174,89.1069844 121.643972,90.1189162 C121.932233,91.2203431 122.928746,91.0178897 123.737554,90.8228104 C125.77449,90.3320956 127.557689,89.277595 129.263795,88.1114768 C130.040089,87.5808746 130.534827,86.7928483 130.68432,85.5469554 L130.68432,85.5469554 Z M83.5167019,40.368341 C83.4788257,37.663376 82.9592847,35.5091244 81.7204308,33.5841412 C80.4373321,31.5907798 77.4990764,31.6182652 76.2367594,33.5921857 C74.5068555,36.297486 75.7078332,42.303715 78.348107,44.1505995 C80.1266131,45.3951515 82.3254447,44.7408651 83.1845308,42.7387887 C83.5750246,41.8290892 83.4979314,40.8838598 83.5167019,40.368341 L83.5167019,40.368341 Z M85.3340898,82.141448 C85.138005,82.4853506 85.2583374,82.6707095 85.3924125,82.8470182 C89.1642801,87.8108134 93.325971,92.3673555 98.726851,95.63376 C101.23372,97.1498142 103.916228,97.82086 106.869232,97.6914776 C109.639223,97.5701396 109.961674,97.908344 110.027706,100.696771 C110.166138,106.553506 110.402781,112.429012 108.532098,118.116142 C107.899934,120.038779 107.102857,121.872256 105.659874,123.355797 C103.75165,125.317986 101.382879,125.336086 99.5336479,123.323619 C97.2349304,120.822113 95.9786468,117.815814 95.5134062,114.481031 C95.2281614,112.436386 94.9590057,110.38068 94.8591197,108.321286 C94.781021,106.710039 94.0747804,106.632946 92.8335802,107.108577 C89.7602439,108.286762 86.6285848,109.270873 83.4305586,110.075659 C78.7825103,111.245129 74.0714466,111.528698 69.3107752,111.435851 C66.8997698,111.388924 66.9557462,111.418756 66.7445779,113.901827 C66.3235821,118.849198 65.9123067,123.801932 64.6392637,128.629641 C64.3660857,129.665036 63.9799494,130.614623 63.2334863,131.436168 C61.0594587,133.827397 58.4443239,133.789186 56.4134214,131.240753 C54.8601615,129.291637 53.8690113,127.063644 53.227462,124.658672 C52.1783244,120.724238 51.0474009,116.811256 50.0270895,112.869449 C49.7022925,111.614506 49.1418586,111.022899 47.7625611,110.967593 C40.7182556,110.684695 34.0054508,108.887418 27.4749881,106.323567 C26.1701022,105.811065 24.9597393,105.127282 23.7892637,104.359032 C22.4280663,103.465422 21.6480845,103.738264 21.3926714,105.378673 C20.9817312,108.021964 20.7115699,110.688717 20.4393975,113.351784 C20.2962723,114.753204 19.9748273,116.09362 19.4479122,117.393142 C18.6129595,119.452201 16.9336689,120.130956 14.8883534,120.083359 C12.9050475,120.037103 11.761387,118.825735 11.0682187,117.081083 C8.71888787,111.169376 7.41366682,105.030078 7.03389911,98.6853092 C6.92060565,96.7918337 6.7442969,94.9023804 6.6296627,93.0089049 C6.57066966,92.0402123 6.28374895,91.1516296 5.86442909,90.2912027 C4.7160759,87.9344977 3.61531937,85.5536592 2.41434171,83.2244396 C1.26431258,80.9947708 0.931135971,78.5857765 0.501425291,76.1596877 C-1.20300435,66.5401348 1.55793704,58.0850241 6.95948743,50.2496755 C9.62154844,46.3883128 12.207857,42.4649403 15.4246537,39.0356346 C22.5608007,31.4282137 31.2307667,26.6005047 41.5682917,24.8853491 C43.7912568,24.5166426 45.8087518,23.5047108 47.9519422,22.8886357 C54.0771629,21.1285649 60.0311027,18.9186721 65.8104097,16.2227572 C66.8635695,15.731372 67.2379742,15.3023316 66.4998908,14.287048 C65.3072929,12.6473096 65.5942136,11.0836588 66.7003331,9.49889116 C67.5758435,8.24461865 68.6239755,7.1743642 69.8081938,6.23852004 C72.1940601,4.35275382 73.798939,4.16136163 75.6924145,6.50365354 C76.1807831,7.10799703 76.6396551,7.30173554 77.3995257,6.87872861 C83.1727993,3.66427821 89.4113134,2.49112113 95.9602115,2.79010859 C96.9889026,2.83703487 97.6961488,2.64798899 97.8013977,1.46008365 C97.8922336,0.433403608 98.7754533,0.288267318 99.5209108,0.17530905 C101.239083,-0.0844614462 102.971669,-0.0355240365 104.696545,0.191062874 C106.446895,0.42133685 107.64251,1.41148143 107.42028,3.16954111 C107.025764,6.28946857 108.577013,7.89803452 111.089916,9.27766725 C115.402441,11.6450982 118.182488,15.5848949 120.500646,19.7304969 C128.622581,34.2538463 136.177712,49.0627758 142.638456,64.419402 C145.092365,70.252339 144.191716,75.2000452 140.240188,80.1169141 C135.47717,86.0433685 129.771604,90.829179 122.59557,92.8644389 C113.694659,95.3887378 104.631183,95.5714151 96.3175216,90.0860678 C93.0018445,87.8982974 89.7867237,85.6123171 86.7747267,83.0293603 C86.3691495,82.6811003 86.0369785,82.1709446 85.3340898,82.141448 L85.3340898,82.141448 Z" id="Capi"></path>
            </g>
        </g>
    </g>
</svg>