<svg id="Layer_1" data-name="Layer 1" xmlns="http://www.w3.org/2000/svg" width="99.4" height="18.6" viewBox="0 0 99.4 18.6"><defs><style>.cls-1{fill:#1c4178;}.cls-2{fill:#dadbdb;}.cls-3{fill:#0093d0;}.cls-4{fill:#00bce4;}.cls-5{fill:#0d3f7a;}</style></defs><title>ebanx</title><polygon class="cls-1" points="0 0 11.4 9.2 0 18.5 0 0"/><polygon class="cls-2" points="8.3 11.8 0 18.5 14.5 18.5 8.3 11.8"/><polygon class="cls-2" points="0 0 8.3 6.7 14.5 0 0 0"/><polygon class="cls-3" points="0 18.5 8.3 11.8 6.1 9.2 0 16 0 18.5"/><polygon class="cls-4" points="0 2.5 0 16 6.1 9.2 0 2.5"/><polygon class="cls-3" points="0 0 8.3 6.7 6.1 9.2 0 2.5 0 0"/><path class="cls-5" d="M19.5,18.5V3.7a5.575,5.575,0,0,0-.3-2.4C19,1,18.2.8,16.9,0.6V0H30.1l0.1,4.1H29.4a2.776,2.776,0,0,0-.7-2.2,3.4,3.4,0,0,0-2.2-.6H24.4a3.709,3.709,0,0,0-1.4.2,1.737,1.737,0,0,0-.3,1.2V8.2H26A3.6,3.6,0,0,0,27.1,8a1.344,1.344,0,0,0,.7-0.6,1.628,1.628,0,0,1,.3-0.6,6.373,6.373,0,0,0,.2-0.7h0.8v5.8H28.3A2.092,2.092,0,0,0,26,9.5H22.7v6.1a1.707,1.707,0,0,0,.3,1.3,2.386,2.386,0,0,0,1.4.2h3.1a2.445,2.445,0,0,0,1.8-.6,3.448,3.448,0,0,0,.7-2.1h0.8l-0.1,4H19.5v0.1Z"/><path class="cls-5" d="M34.4,18.5V3.7a4.965,4.965,0,0,0-.3-2.4c-0.2-.3-1-0.5-2.3-0.7V0H40c4.3,0,6.5,1.5,6.5,4.5q0,3.15-3.3,4.2V8.8c2.8,0.5,4.2,2.2,4.2,4.9a4.844,4.844,0,0,1-.3,1.8,4.11,4.11,0,0,1-.8,1.3,4.846,4.846,0,0,1-1.3.9,12.129,12.129,0,0,1-1.4.5q-0.6.15-1.5,0.3a8.17,8.17,0,0,1-1.4.1H34.4V18.5ZM37.5,2.7V8.1h1.8c2.8,0,4.2-1.2,4.2-3.5a2.8,2.8,0,0,0-1-2.5,4.767,4.767,0,0,0-2.9-.8,4.95,4.95,0,0,0-1.7.2A1.342,1.342,0,0,0,37.5,2.7Zm0,6.7v6.7a0.845,0.845,0,0,0,.2.6,0.6,0.6,0,0,0,.6.3,2.2,2.2,0,0,0,.8.1h1.1a4.5,4.5,0,0,0,3.3-1,4.139,4.139,0,0,0,1-3.1,3.231,3.231,0,0,0-1.2-2.8,5.275,5.275,0,0,0-3.2-.9H37.5V9.4Z"/><path class="cls-5" d="M49,18.5l5.5-15A10.709,10.709,0,0,0,55,1.9V1.6c0-.1-0.1-0.2-0.1-0.3-0.2-.1-0.2-0.1-0.2-0.2A0.367,0.367,0,0,0,54.4,1c-0.1,0-.2-0.1-0.3-0.1S53.9,0.8,53.8.8A0.367,0.367,0,0,1,53.5.7H53.1c-0.2,0-.3,0-0.3-0.1V0H58l6.7,18.5H61.8l-2.1-5.7h-7l-2,5.7H49Zm7.2-15-2.9,8h6.1Z"/><path class="cls-5" d="M67.5,18.5V3.5a3.3,3.3,0,0,0-.4-2.1A3.51,3.51,0,0,0,65.2.7,2.269,2.269,0,0,1,64.8.6V0h5.8l8.7,15h0.1V0h1.7V18.5H78.5L69.3,2.9H69.2V18.5H67.5Z"/><path class="cls-5" d="M84.5,18.5L90.2,9,86.5,2.9a6.607,6.607,0,0,0-1.4-1.7A4.48,4.48,0,0,0,82.9.6V0h5.2l4.4,7.2L96.9,0h2L93.5,8.6l5.9,9.9H95.9l-4.7-8-4.8,8H84.5Z"/></svg>